<svg width="19" height="19" viewBox="0 0 19 19" fill="none" xmlns="http://www.w3.org/2000/svg">
<path fill-rule="evenodd" clip-rule="evenodd" d="M11.3041 1.70256C11.0109 1.58203 10.6392 1.58203 9.89583 1.58203C9.15248 1.58203 8.7808 1.58203 8.48761 1.70256C8.09669 1.86325 7.78611 2.17149 7.62419 2.55945C7.55027 2.73655 7.52135 2.94251 7.51003 3.24294C7.49339 3.68444 7.26525 4.09311 6.87971 4.31402C6.49418 4.53492 6.0235 4.52667 5.62993 4.32021C5.3621 4.17973 5.16791 4.10161 4.97641 4.07659C4.5569 4.02177 4.13264 4.1346 3.79696 4.39023C3.54519 4.58196 3.35935 4.90141 2.98767 5.54031C2.61599 6.17921 2.43015 6.49866 2.38873 6.81091C2.3335 7.22725 2.44719 7.6483 2.70477 7.98145C2.82234 8.13351 2.98757 8.26134 3.24402 8.42126C3.62102 8.65635 3.86359 9.05684 3.86356 9.49872C3.86354 9.94055 3.62098 10.341 3.24401 10.576C2.98753 10.736 2.82227 10.8638 2.70469 11.0159C2.44711 11.349 2.33343 11.7701 2.38865 12.1864C2.43008 12.4987 2.61592 12.8181 2.9876 13.457C3.35927 14.0959 3.54511 14.4154 3.79688 14.6071C4.13257 14.8627 4.55683 14.9756 4.97633 14.9208C5.16782 14.8957 5.362 14.8176 5.6298 14.6772C6.02341 14.4707 6.49412 14.4624 6.87968 14.6834C7.26524 14.9043 7.49339 15.313 7.51003 15.7545C7.52135 16.0549 7.55028 16.2609 7.62419 16.4379C7.78611 16.8259 8.09669 17.1341 8.48761 17.2948C8.7808 17.4154 9.15248 17.4154 9.89583 17.4154C10.6392 17.4154 11.0109 17.4154 11.3041 17.2948C11.695 17.1341 12.0056 16.8259 12.1675 16.4379C12.2414 16.2608 12.2703 16.0549 12.2816 15.7544C12.2983 15.3129 12.5264 14.9043 12.9119 14.6834C13.2975 14.4624 13.7682 14.4706 14.1618 14.6771C14.4296 14.8176 14.6238 14.8957 14.8153 14.9207C15.2348 14.9755 15.659 14.8627 15.9947 14.6071C16.2465 14.4153 16.4323 14.0959 16.804 13.457C17.1757 12.8181 17.3615 12.4986 17.4029 12.1864C17.4582 11.77 17.3445 11.349 17.0869 11.0158C16.9693 10.8638 16.8041 10.7359 16.5476 10.576C16.1706 10.3409 15.9281 9.94047 15.9281 9.49863C15.9281 9.05683 16.1707 8.65643 16.5476 8.42139C16.8041 8.26144 16.9694 8.13359 17.087 7.98151C17.3446 7.64836 17.4582 7.2273 17.403 6.81097C17.3616 6.49872 17.1758 6.17927 16.8041 5.54036C16.4324 4.90146 16.2466 4.58201 15.9948 4.39029C15.6591 4.13465 15.2348 4.02183 14.8153 4.07664C14.6238 4.10166 14.4297 4.17977 14.1619 4.32025C13.7683 4.52671 13.2975 4.53496 12.912 4.31404C12.5264 4.09312 12.2983 3.68443 12.2816 3.2429C12.2703 2.94249 12.2414 2.73654 12.1675 2.55945C12.0056 2.17149 11.695 1.86325 11.3041 1.70256ZM9.89583 11.8737C11.2175 11.8737 12.2889 10.8104 12.2889 9.4987C12.2889 8.18702 11.2175 7.1237 9.89583 7.1237C8.57417 7.1237 7.50275 8.18702 7.50275 9.4987C7.50275 10.8104 8.57417 11.8737 9.89583 11.8737Z" fill="white"/>
</svg>
