<svg width="20" height="17" viewBox="0 0 20 17" fill="none" xmlns="http://www.w3.org/2000/svg">
<path d="M0.6875 12.4883C2.58598 12.4883 4.125 14.1337 4.125 16.1631C4.12489 16.5689 3.81713 16.8975 3.4375 16.8975C3.05787 16.8975 2.75011 16.5689 2.75 16.1631C2.75 15.0216 1.93843 14.0827 0.898438 13.9697L0.617188 13.9541C0.270659 13.9165 0.000196859 13.6039 0 13.2236C0 12.8178 0.307804 12.4883 0.6875 12.4883ZM0.6875 9.54883C4.10476 9.54883 6.875 12.5102 6.875 16.1631C6.87489 16.5689 6.56713 16.8975 6.1875 16.8975C5.80787 16.8975 5.50011 16.5689 5.5 16.1631C5.5 13.3219 3.34537 11.0186 0.6875 11.0186C0.307804 11.0186 0 10.6891 0 10.2832C0.000181451 9.87749 0.307916 9.54883 0.6875 9.54883ZM0.6875 6.60938C5.62355 6.60938 9.625 10.8866 9.625 16.1631C9.62489 16.5689 9.31713 16.8975 8.9375 16.8975C8.55787 16.8975 8.25011 16.5689 8.25 16.1631C8.25 11.6984 4.86415 8.0791 0.6875 8.0791C0.307804 8.0791 0 7.74963 0 7.34375C7.93771e-05 6.93794 0.307853 6.60938 0.6875 6.60938ZM11.6875 0.484375C15.1445 0.484375 16.8733 0.484806 17.9473 1.63281C19.0212 2.78082 19.0215 4.62889 19.0215 8.32422C19.0215 12.0192 19.0211 13.8667 17.9473 15.0146C16.9396 16.0918 14.5484 16.159 11.4014 16.1631C11.0534 16.1635 10.7715 15.8612 10.7715 15.4893C10.7715 9.90848 6.53905 5.38395 1.31836 5.38379C0.970305 5.38379 0.687156 5.08201 0.689453 4.70996C0.691326 4.40716 0.695093 4.12955 0.705078 4.02051C0.876535 2.15962 2.2543 0.687219 3.99512 0.503906C4.17433 0.485038 4.38711 0.484375 4.8125 0.484375H11.6875Z" fill="white"/>
</svg>
