<svg width="20" height="20" viewBox="0 0 20 20" fill="none" xmlns="http://www.w3.org/2000/svg">
<path fill-rule="evenodd" clip-rule="evenodd" d="M18.3307 10.0013C18.3307 14.6037 14.5998 18.3346 9.9974 18.3346C5.39502 18.3346 1.66406 14.6037 1.66406 10.0013C1.66406 5.39893 5.39502 1.66797 9.9974 1.66797C14.5998 1.66797 18.3307 5.39893 18.3307 10.0013ZM12.4974 7.5013C12.4974 8.88201 11.3781 10.0013 9.9974 10.0013C8.61668 10.0013 7.4974 8.88201 7.4974 7.5013C7.4974 6.12059 8.61668 5.0013 9.9974 5.0013C11.3781 5.0013 12.4974 6.12059 12.4974 7.5013ZM9.99738 17.0846C11.4841 17.0846 12.8638 16.6266 14.0032 15.844C14.5064 15.4983 14.7214 14.8398 14.4289 14.304C13.8224 13.1932 12.5726 12.5013 9.99734 12.5013C7.42214 12.5013 6.17237 13.1932 5.56585 14.3039C5.27327 14.8398 5.48831 15.4982 5.99153 15.8439C7.13088 16.6266 8.51064 17.0846 9.99738 17.0846Z" fill="white"/>
</svg>
